<?xml version="1.0" encoding="UTF-8" standalone="no"?>
<!DOCTYPE svg PUBLIC "-//W3C//DTD SVG 1.1//EN"
 "http://www.w3.org/Graphics/SVG/1.1/DTD/svg11.dtd">
<!-- Generated by graphviz version 14.1.4 (20260321.0153)
 -->
<!-- Title: OxCidationExperiment Pages: 1 -->
<svg width="975pt" height="2095pt"
 viewBox="0.00 0.00 975.00 2095.00" xmlns="http://www.w3.org/2000/svg" xmlns:xlink="http://www.w3.org/1999/xlink">
<g id="graph0" class="graph" transform="scale(1 1) rotate(0) translate(25.2 2069.36)">
<title>OxCidationExperiment</title>
<polygon fill="#fafbfc" stroke="none" points="-25.2,25.2 -25.2,-2069.36 949.62,-2069.36 949.62,25.2 -25.2,25.2"/>
<text xml:space="preserve" text-anchor="middle" x="462.21" y="-2023.06" font-family="DejaVu Sans" font-size="18.00">OxCidation experiment flow &#45; agent and module perspective</text>
<g id="clust1" class="cluster">
<title>cluster_preparation</title>
<path fill="#f5f7f9" stroke="#98a2b3" d="M67.42,-1226.39C67.42,-1226.39 619.42,-1226.39 619.42,-1226.39 625.42,-1226.39 631.42,-1232.39 631.42,-1238.39 631.42,-1238.39 631.42,-1926.13 631.42,-1926.13 631.42,-1932.13 625.42,-1938.13 619.42,-1938.13 619.42,-1938.13 67.42,-1938.13 67.42,-1938.13 61.42,-1938.13 55.42,-1932.13 55.42,-1926.13 55.42,-1926.13 55.42,-1238.39 55.42,-1238.39 55.42,-1232.39 61.42,-1226.39 67.42,-1226.39"/>
<text xml:space="preserve" text-anchor="middle" x="343.42" y="-1921.78" font-family="DejaVu Sans" font-size="13.00">PHASE A &#45; ONCE PER C PROGRAM: PREPARE SHARED VISIBLE EVIDENCE</text>
</g>
<g id="clust2" class="cluster">
<title>cluster_prompt_run</title>
<path fill="#f8f9fb" stroke="#98a2b3" d="M335.42,-112.28C335.42,-112.28 904.42,-112.28 904.42,-112.28 910.42,-112.28 916.42,-118.28 916.42,-124.28 916.42,-124.28 916.42,-1109.86 916.42,-1109.86 916.42,-1115.86 910.42,-1121.86 904.42,-1121.86 904.42,-1121.86 335.42,-1121.86 335.42,-1121.86 329.42,-1121.86 323.42,-1115.86 323.42,-1109.86 323.42,-1109.86 323.42,-124.28 323.42,-124.28 323.42,-118.28 329.42,-112.28 335.42,-112.28"/>
<text xml:space="preserve" text-anchor="middle" x="619.92" y="-1105.51" font-family="DejaVu Sans" font-size="13.00">PHASE B &#45; ONCE PER PROGRAM x PROMPT: TRANSLATE, REPAIR AND EVALUATE</text>
</g>
<!-- start -->
<g id="node1" class="node">
<title>start</title>
<path fill="#e9edf2" stroke="#475467" d="M433.63,-2010.66C433.63,-2010.66 199.21,-2010.66 199.21,-2010.66 193.21,-2010.66 187.21,-2004.66 187.21,-1998.66 187.21,-1998.66 187.21,-1958.13 187.21,-1958.13 187.21,-1952.13 193.21,-1946.13 199.21,-1946.13 199.21,-1946.13 433.63,-1946.13 433.63,-1946.13 439.63,-1946.13 445.63,-1952.13 445.63,-1958.13 445.63,-1958.13 445.63,-1998.66 445.63,-1998.66 445.63,-2004.66 439.63,-2010.66 433.63,-2010.66"/>
<text xml:space="preserve" text-anchor="middle" x="316.42" y="-1991.57" font-family="DejaVu Sans" font-size="11.00">EXPERIMENT ORCHESTRATOR</text>
<text xml:space="preserve" text-anchor="middle" x="316.42" y="-1975.82" font-family="DejaVu Sans" font-size="11.00">Select C programs, prompts, model and seed</text>
<text xml:space="preserve" text-anchor="middle" x="316.42" y="-1960.07" font-family="DejaVu Sans" font-size="11.00">benchmark.py</text>
</g>
<!-- generate -->
<g id="node2" class="node">
<title>generate</title>
<path fill="#ddf3ee" stroke="#267a6e" d="M434.38,-1903.38C434.38,-1903.38 198.46,-1903.38 198.46,-1903.38 192.46,-1903.38 186.46,-1897.38 186.46,-1891.38 186.46,-1891.38 186.46,-1850.85 186.46,-1850.85 186.46,-1844.85 192.46,-1838.85 198.46,-1838.85 198.46,-1838.85 434.38,-1838.85 434.38,-1838.85 440.38,-1838.85 446.38,-1844.85 446.38,-1850.85 446.38,-1850.85 446.38,-1891.38 446.38,-1891.38 446.38,-1897.38 440.38,-1903.38 434.38,-1903.38"/>
<text xml:space="preserve" text-anchor="middle" x="316.42" y="-1884.29" font-family="DejaVu Sans" font-size="11.00">TESTER AGENT</text>
<text xml:space="preserve" text-anchor="middle" x="316.42" y="-1868.54" font-family="DejaVu Sans" font-size="11.00">Generate language&#45;agnostic input candidates</text>
<text xml:space="preserve" text-anchor="middle" x="316.42" y="-1852.79" font-family="DejaVu Sans" font-size="11.00">C source only</text>
</g>
<!-- start&#45;&gt;generate -->
<g id="edge25" class="edge">
<title>start&#45;&gt;generate</title>
<path fill="none" stroke="#667085" stroke-width="1.25" d="M316.42,-1945.92C316.42,-1945.92 316.42,-1913.25 316.42,-1913.25"/>
<polygon fill="#667085" stroke="#667085" stroke-width="1.25" points="319.04,-1913.25 316.42,-1905.75 313.79,-1913.25 319.04,-1913.25"/>
</g>
<!-- deterministic -->
<g id="node3" class="node">
<title>deterministic</title>
<path fill="#e7f3e8" stroke="#3a7d44" d="M343.25,-1798.85C343.25,-1798.85 139.58,-1798.85 139.58,-1798.85 133.58,-1798.85 127.58,-1792.85 127.58,-1786.85 127.58,-1786.85 127.58,-1730.57 127.58,-1730.57 127.58,-1724.57 133.58,-1718.57 139.58,-1718.57 139.58,-1718.57 343.25,-1718.57 343.25,-1718.57 349.25,-1718.57 355.25,-1724.57 355.25,-1730.57 355.25,-1730.57 355.25,-1786.85 355.25,-1786.85 355.25,-1792.85 349.25,-1798.85 343.25,-1798.85"/>
<text xml:space="preserve" text-anchor="middle" x="241.42" y="-1779.76" font-family="DejaVu Sans" font-size="11.00">DETERMINISTIC TEST ENGINE</text>
<text xml:space="preserve" text-anchor="middle" x="241.42" y="-1764.01" font-family="DejaVu Sans" font-size="11.00">Compile C; run each input once</text>
<text xml:space="preserve" text-anchor="middle" x="241.42" y="-1748.26" font-family="DejaVu Sans" font-size="11.00">Reject duplicates, failures and timeouts</text>
<text xml:space="preserve" text-anchor="middle" x="241.42" y="-1732.51" font-family="DejaVu Sans" font-size="11.00">visible_test_preparation.py</text>
</g>
<!-- generate&#45;&gt;deterministic -->
<g id="edge1" class="edge">
<title>generate&#45;&gt;deterministic</title>
<path fill="none" stroke="#667085" stroke-width="1.25" d="M270.86,-1838.6C270.86,-1838.6 270.86,-1808.54 270.86,-1808.54"/>
<polygon fill="#667085" stroke="#667085" stroke-width="1.25" points="273.48,-1808.54 270.86,-1801.04 268.23,-1808.54 273.48,-1808.54"/>
</g>
<!-- operational -->
<g id="node10" class="node">
<title>operational</title>
<path fill="#fde8e7" stroke="#b42318" d="M534.88,-1419.97C534.88,-1419.97 325.96,-1419.97 325.96,-1419.97 319.96,-1419.97 313.96,-1413.97 313.96,-1407.97 313.96,-1407.97 313.96,-1367.43 313.96,-1367.43 313.96,-1361.43 319.96,-1355.43 325.96,-1355.43 325.96,-1355.43 534.88,-1355.43 534.88,-1355.43 540.88,-1355.43 546.88,-1361.43 546.88,-1367.43 546.88,-1367.43 546.88,-1407.97 546.88,-1407.97 546.88,-1413.97 540.88,-1419.97 534.88,-1419.97"/>
<text xml:space="preserve" text-anchor="middle" x="430.42" y="-1400.88" font-family="DejaVu Sans" font-size="11.00">OPERATIONAL FAILURE</text>
<text xml:space="preserve" text-anchor="middle" x="430.42" y="-1385.12" font-family="DejaVu Sans" font-size="11.00">generation_failed / review_failed</text>
<text xml:space="preserve" text-anchor="middle" x="430.42" y="-1369.38" font-family="DejaVu Sans" font-size="11.00">Stop before translation; &#45;&#45;resume retries</text>
</g>
<!-- generate&#45;&gt;operational -->
<g id="edge10" class="edge">
<title>generate&#45;&gt;operational</title>
<path fill="none" stroke="#b42318" stroke-width="1.25" stroke-dasharray="5,2" d="M391.42,-1838.65C391.42,-1838.65 391.42,-1429.74 391.42,-1429.74"/>
<polygon fill="#b42318" stroke="#b42318" stroke-width="1.25" points="394.04,-1429.74 391.42,-1422.24 388.79,-1429.74 394.04,-1429.74"/>
<text xml:space="preserve" text-anchor="middle" x="368.17" y="-1638.39" font-family="DejaVu Sans" font-size="9.00" fill="#344054">LLM failure</text>
</g>
<!-- deterministic_decision -->
<g id="node4" class="node">
<title>deterministic_decision</title>
<polygon fill="#eef7ef" stroke="#3a7d44" points="241.42,-1678.57 160.75,-1629.79 241.42,-1581.01 322.09,-1629.79 241.42,-1678.57"/>
<text xml:space="preserve" text-anchor="middle" x="241.42" y="-1635.09" font-family="DejaVu Sans" font-size="11.00">Executable</text>
<text xml:space="preserve" text-anchor="middle" x="241.42" y="-1619.34" font-family="DejaVu Sans" font-size="11.00">batch</text>
</g>
<!-- deterministic&#45;&gt;deterministic_decision -->
<g id="edge2" class="edge">
<title>deterministic&#45;&gt;deterministic_decision</title>
<path fill="none" stroke="#667085" stroke-width="1.25" d="M241.42,-1718.27C241.42,-1718.27 241.42,-1688.54 241.42,-1688.54"/>
<polygon fill="#667085" stroke="#667085" stroke-width="1.25" points="244.04,-1688.54 241.42,-1681.04 238.79,-1688.54 244.04,-1688.54"/>
</g>
<!-- suite_review -->
<g id="node5" class="node">
<title>suite_review</title>
<path fill="#fff1cc" stroke="#a46a00" d="M353.75,-1541.01C353.75,-1541.01 129.08,-1541.01 129.08,-1541.01 123.08,-1541.01 117.08,-1535.01 117.08,-1529.01 117.08,-1529.01 117.08,-1488.48 117.08,-1488.48 117.08,-1482.48 123.08,-1476.48 129.08,-1476.48 129.08,-1476.48 353.75,-1476.48 353.75,-1476.48 359.75,-1476.48 365.75,-1482.48 365.75,-1488.48 365.75,-1488.48 365.75,-1529.01 365.75,-1529.01 365.75,-1535.01 359.75,-1541.01 353.75,-1541.01"/>
<text xml:space="preserve" text-anchor="middle" x="241.42" y="-1521.92" font-family="DejaVu Sans" font-size="11.00">VALIDATOR AGENT</text>
<text xml:space="preserve" text-anchor="middle" x="241.42" y="-1506.17" font-family="DejaVu Sans" font-size="11.00">Review the complete executable batch</text>
<text xml:space="preserve" text-anchor="middle" x="241.42" y="-1490.42" font-family="DejaVu Sans" font-size="11.00">C source + compact deterministic summary</text>
</g>
<!-- deterministic_decision&#45;&gt;suite_review -->
<g id="edge3" class="edge">
<title>deterministic_decision&#45;&gt;suite_review</title>
<path fill="none" stroke="#667085" stroke-width="1.25" d="M241.42,-1580.56C241.42,-1580.56 241.42,-1550.69 241.42,-1550.69"/>
<polygon fill="#667085" stroke="#667085" stroke-width="1.25" points="244.04,-1550.69 241.42,-1543.19 238.79,-1550.69 244.04,-1550.69"/>
<text xml:space="preserve" text-anchor="middle" x="180.67" y="-1569.83" font-family="DejaVu Sans" font-size="9.00" fill="#344054">all retained cases executable</text>
</g>
<!-- regenerate -->
<g id="node7" class="node">
<title>regenerate</title>
<path fill="#ddf3ee" stroke="#267a6e" d="M259.88,-1298.92C259.88,-1298.92 74.96,-1298.92 74.96,-1298.92 68.96,-1298.92 62.96,-1292.92 62.96,-1286.92 62.96,-1286.92 62.96,-1246.39 62.96,-1246.39 62.96,-1240.39 68.96,-1234.39 74.96,-1234.39 74.96,-1234.39 259.88,-1234.39 259.88,-1234.39 265.88,-1234.39 271.88,-1240.39 271.88,-1246.39 271.88,-1246.39 271.88,-1286.92 271.88,-1286.92 271.88,-1292.92 265.88,-1298.92 259.88,-1298.92"/>
<text xml:space="preserve" text-anchor="middle" x="167.42" y="-1279.83" font-family="DejaVu Sans" font-size="11.00">TESTER AGENT</text>
<text xml:space="preserve" text-anchor="middle" x="167.42" y="-1264.08" font-family="DejaVu Sans" font-size="11.00">Generate only requested slots</text>
<text xml:space="preserve" text-anchor="middle" x="167.42" y="-1248.33" font-family="DejaVu Sans" font-size="11.00">Keep the retained batch unchanged</text>
</g>
<!-- deterministic_decision&#45;&gt;regenerate -->
<g id="edge4" class="edge">
<title>deterministic_decision&#45;&gt;regenerate</title>
<path fill="none" stroke="#667085" stroke-width="1.25" d="M160.25,-1630C128.27,-1630 99.04,-1630 99.04,-1630 99.04,-1630 99.04,-1308.61 99.04,-1308.61"/>
<polygon fill="#667085" stroke="#667085" stroke-width="1.25" points="101.67,-1308.61 99.04,-1301.11 96.42,-1308.61 101.67,-1308.61"/>
</g>
<!-- unavailable -->
<g id="node9" class="node">
<title>unavailable</title>
<path fill="#f2f4f7" stroke="#667085" d="M611.75,-1541.01C611.75,-1541.01 429.08,-1541.01 429.08,-1541.01 423.08,-1541.01 417.08,-1535.01 417.08,-1529.01 417.08,-1529.01 417.08,-1488.48 417.08,-1488.48 417.08,-1482.48 423.08,-1476.48 429.08,-1476.48 429.08,-1476.48 611.75,-1476.48 611.75,-1476.48 617.75,-1476.48 623.75,-1482.48 623.75,-1488.48 623.75,-1488.48 623.75,-1529.01 623.75,-1529.01 623.75,-1535.01 617.75,-1541.01 611.75,-1541.01"/>
<text xml:space="preserve" text-anchor="middle" x="520.42" y="-1521.92" font-family="DejaVu Sans" font-size="11.00">VISIBLE TESTS DISABLED</text>
<text xml:space="preserve" text-anchor="middle" x="520.42" y="-1506.17" font-family="DejaVu Sans" font-size="11.00">No usable cases remain</text>
<text xml:space="preserve" text-anchor="middle" x="520.42" y="-1490.42" font-family="DejaVu Sans" font-size="11.00">Translation and Judge still continue</text>
</g>
<!-- deterministic_decision&#45;&gt;unavailable -->
<g id="edge9" class="edge">
<title>deterministic_decision&#45;&gt;unavailable</title>
<path fill="none" stroke="#667085" stroke-width="1.25" d="M322.68,-1630C374.41,-1630 431.73,-1630 431.73,-1630 431.73,-1630 431.73,-1550.63 431.73,-1550.63"/>
<polygon fill="#667085" stroke="#667085" stroke-width="1.25" points="434.36,-1550.63 431.73,-1543.13 429.11,-1550.63 434.36,-1550.63"/>
<text xml:space="preserve" text-anchor="middle" x="383.51" y="-1621.45" font-family="DejaVu Sans" font-size="9.00" fill="#344054">no usable cases</text>
</g>
<!-- suite_decision -->
<g id="node6" class="node">
<title>suite_decision</title>
<polygon fill="#fff8e7" stroke="#a46a00" points="203.42,-1436.48 117.5,-1387.7 203.42,-1338.92 289.34,-1387.7 203.42,-1436.48"/>
<text xml:space="preserve" text-anchor="middle" x="203.42" y="-1393" font-family="DejaVu Sans" font-size="11.00">Suite</text>
<text xml:space="preserve" text-anchor="middle" x="203.42" y="-1377.25" font-family="DejaVu Sans" font-size="11.00">assessment</text>
</g>
<!-- suite_review&#45;&gt;suite_decision -->
<g id="edge5" class="edge">
<title>suite_review&#45;&gt;suite_decision</title>
<path fill="none" stroke="#667085" stroke-width="1.25" d="M203.42,-1475.99C203.42,-1475.99 203.42,-1446.25 203.42,-1446.25"/>
<polygon fill="#667085" stroke="#667085" stroke-width="1.25" points="206.04,-1446.25 203.42,-1438.75 200.79,-1446.25 206.04,-1446.25"/>
</g>
<!-- suite_review&#45;&gt;operational -->
<g id="edge11" class="edge">
<title>suite_review&#45;&gt;operational</title>
<path fill="none" stroke="#b42318" stroke-width="1.25" stroke-dasharray="5,2" d="M339.86,-1475.99C339.86,-1475.99 339.86,-1429.46 339.86,-1429.46"/>
<polygon fill="#b42318" stroke="#b42318" stroke-width="1.25" points="342.48,-1429.46 339.86,-1421.96 337.23,-1429.46 342.48,-1429.46"/>
<text xml:space="preserve" text-anchor="middle" x="294.11" y="-1456.92" font-family="DejaVu Sans" font-size="9.00" fill="#344054">LLM or parsing failure</text>
</g>
<!-- suite_decision&#45;&gt;regenerate -->
<g id="edge7" class="edge">
<title>suite_decision&#45;&gt;regenerate</title>
<path fill="none" stroke="#667085" stroke-width="1.25" d="M194.69,-1343.31C194.69,-1343.31 194.69,-1308.67 194.69,-1308.67"/>
<polygon fill="#667085" stroke="#667085" stroke-width="1.25" points="197.31,-1308.67 194.69,-1301.17 192.06,-1308.67 197.31,-1308.67"/>
</g>
<!-- frozen -->
<g id="node8" class="node">
<title>frozen</title>
<path fill="#e0f2f1" stroke="#267a6e" d="M513.13,-1298.92C513.13,-1298.92 329.71,-1298.92 329.71,-1298.92 323.71,-1298.92 317.71,-1292.92 317.71,-1286.92 317.71,-1286.92 317.71,-1246.39 317.71,-1246.39 317.71,-1240.39 323.71,-1234.39 329.71,-1234.39 329.71,-1234.39 513.13,-1234.39 513.13,-1234.39 519.13,-1234.39 525.13,-1240.39 525.13,-1246.39 525.13,-1246.39 525.13,-1286.92 525.13,-1286.92 525.13,-1292.92 519.13,-1298.92 513.13,-1298.92"/>
<text xml:space="preserve" text-anchor="middle" x="421.42" y="-1279.83" font-family="DejaVu Sans" font-size="11.00">FROZEN SUITE</text>
<text xml:space="preserve" text-anchor="middle" x="421.42" y="-1264.08" font-family="DejaVu Sans" font-size="11.00">C oracle outputs + suite hash</text>
<text xml:space="preserve" text-anchor="middle" x="421.42" y="-1248.33" font-family="DejaVu Sans" font-size="11.00">Shared by every translation prompt</text>
</g>
<!-- suite_decision&#45;&gt;frozen -->
<g id="edge6" class="edge">
<title>suite_decision&#45;&gt;frozen</title>
<path fill="none" stroke="#667085" stroke-width="1.25" d="M280.61,-1382.2C280.61,-1358.59 280.61,-1267 280.61,-1267 280.61,-1267 307.84,-1267 307.84,-1267"/>
<polygon fill="#667085" stroke="#667085" stroke-width="1.25" points="307.85,-1269.63 315.34,-1267 307.84,-1264.38 307.85,-1269.63"/>
<text xml:space="preserve" text-anchor="middle" x="260.73" y="-1315.18" font-family="DejaVu Sans" font-size="9.00" fill="#344054">approved</text>
</g>
<!-- regenerate&#45;&gt;deterministic -->
<g id="edge8" class="edge">
<title>regenerate&#45;&gt;deterministic</title>
<path fill="none" stroke="#667085" stroke-width="1.25" d="M81,-1299.34C81,-1409.3 81,-1759 81,-1759 81,-1759 118.01,-1759 118.01,-1759"/>
<polygon fill="#667085" stroke="#667085" stroke-width="1.25" points="118.01,-1761.63 125.51,-1759 118.01,-1756.38 118.01,-1761.63"/>
<text xml:space="preserve" text-anchor="middle" x="40.5" y="-1551.87" font-family="DejaVu Sans" font-size="9.00" fill="#344054">replacement inputs</text>
</g>
<!-- prompt_entry -->
<g id="node11" class="node">
<title>prompt_entry</title>
<path fill="#e9edf2" stroke="#475467" d="M620,-1194.39C620,-1194.39 384.83,-1194.39 384.83,-1194.39 378.83,-1194.39 372.83,-1188.39 372.83,-1182.39 372.83,-1182.39 372.83,-1141.86 372.83,-1141.86 372.83,-1135.86 378.83,-1129.86 384.83,-1129.86 384.83,-1129.86 620,-1129.86 620,-1129.86 626,-1129.86 632,-1135.86 632,-1141.86 632,-1141.86 632,-1182.39 632,-1182.39 632,-1188.39 626,-1194.39 620,-1194.39"/>
<text xml:space="preserve" text-anchor="middle" x="502.42" y="-1175.3" font-family="DejaVu Sans" font-size="11.00">EXPERIMENT ORCHESTRATOR</text>
<text xml:space="preserve" text-anchor="middle" x="502.42" y="-1159.55" font-family="DejaVu Sans" font-size="11.00">For each program x translation prompt</text>
<text xml:space="preserve" text-anchor="middle" x="502.42" y="-1143.8" font-family="DejaVu Sans" font-size="11.00">Reuse the same frozen or disabled suite state</text>
</g>
<!-- frozen&#45;&gt;prompt_entry -->
<g id="edge26" class="edge">
<title>frozen&#45;&gt;prompt_entry</title>
<path fill="none" stroke="#667085" stroke-width="1.25" d="M448.98,-1234.15C448.98,-1234.15 448.98,-1204 448.98,-1204"/>
<polygon fill="#667085" stroke="#667085" stroke-width="1.25" points="451.61,-1204 448.98,-1196.5 446.36,-1204 451.61,-1204"/>
</g>
<!-- unavailable&#45;&gt;prompt_entry -->
<g id="edge27" class="edge">
<title>unavailable&#45;&gt;prompt_entry</title>
<path fill="none" stroke="#667085" stroke-width="1.25" d="M585.32,-1476.14C585.32,-1476.14 585.32,-1204.04 585.32,-1204.04"/>
<polygon fill="#667085" stroke="#667085" stroke-width="1.25" points="587.94,-1204.04 585.32,-1196.54 582.69,-1204.04 587.94,-1204.04"/>
</g>
<!-- translate -->
<g id="node12" class="node">
<title>translate</title>
<path fill="#dcebfa" stroke="#175cd3" d="M604.63,-1087.11C604.63,-1087.11 400.21,-1087.11 400.21,-1087.11 394.21,-1087.11 388.21,-1081.11 388.21,-1075.11 388.21,-1075.11 388.21,-1034.58 388.21,-1034.58 388.21,-1028.58 394.21,-1022.58 400.21,-1022.58 400.21,-1022.58 604.63,-1022.58 604.63,-1022.58 610.63,-1022.58 616.63,-1028.58 616.63,-1034.58 616.63,-1034.58 616.63,-1075.11 616.63,-1075.11 616.63,-1081.11 610.63,-1087.11 604.63,-1087.11"/>
<text xml:space="preserve" text-anchor="middle" x="502.42" y="-1068.02" font-family="DejaVu Sans" font-size="11.00">TRANSLATOR AGENT</text>
<text xml:space="preserve" text-anchor="middle" x="502.42" y="-1052.27" font-family="DejaVu Sans" font-size="11.00">Generate the initial Rust translation</text>
<text xml:space="preserve" text-anchor="middle" x="502.42" y="-1036.52" font-family="DejaVu Sans" font-size="11.00">Preserve raw response and Rust source</text>
</g>
<!-- prompt_entry&#45;&gt;translate -->
<g id="edge28" class="edge">
<title>prompt_entry&#45;&gt;translate</title>
<path fill="none" stroke="#667085" stroke-width="1.25" d="M502.42,-1129.65C502.42,-1129.65 502.42,-1096.98 502.42,-1096.98"/>
<polygon fill="#667085" stroke="#667085" stroke-width="1.25" points="505.04,-1096.98 502.42,-1089.48 499.79,-1096.98 505.04,-1096.98"/>
</g>
<!-- compile -->
<g id="node13" class="node">
<title>compile</title>
<path fill="#e8eef8" stroke="#475467" d="M617.75,-982.58C617.75,-982.58 387.08,-982.58 387.08,-982.58 381.08,-982.58 375.08,-976.58 375.08,-970.58 375.08,-970.58 375.08,-930.05 375.08,-930.05 375.08,-924.05 381.08,-918.05 387.08,-918.05 387.08,-918.05 617.75,-918.05 617.75,-918.05 623.75,-918.05 629.75,-924.05 629.75,-930.05 629.75,-930.05 629.75,-970.58 629.75,-970.58 629.75,-976.58 623.75,-982.58 617.75,-982.58"/>
<text xml:space="preserve" text-anchor="middle" x="502.42" y="-963.49" font-family="DejaVu Sans" font-size="11.00">COMPILER + VALIDATOR ROUTING</text>
<text xml:space="preserve" text-anchor="middle" x="502.42" y="-947.74" font-family="DejaVu Sans" font-size="11.00">Compile Rust and inspect diagnostics</text>
<text xml:space="preserve" text-anchor="middle" x="502.42" y="-931.99" font-family="DejaVu Sans" font-size="11.00">Compile failure may request bounded repair</text>
</g>
<!-- translate&#45;&gt;compile -->
<g id="edge12" class="edge">
<title>translate&#45;&gt;compile</title>
<path fill="none" stroke="#667085" stroke-width="1.25" d="M502.42,-1022.34C502.42,-1022.34 502.42,-992.19 502.42,-992.19"/>
<polygon fill="#667085" stroke="#667085" stroke-width="1.25" points="505.04,-992.19 502.42,-984.69 499.79,-992.19 505.04,-992.19"/>
</g>
<!-- compile_repair -->
<g id="node14" class="node">
<title>compile_repair</title>
<path fill="#dcebfa" stroke="#175cd3" d="M570.13,-870.17C570.13,-870.17 434.71,-870.17 434.71,-870.17 428.71,-870.17 422.71,-864.17 422.71,-858.17 422.71,-858.17 422.71,-833.39 422.71,-833.39 422.71,-827.39 428.71,-821.39 434.71,-821.39 434.71,-821.39 570.13,-821.39 570.13,-821.39 576.13,-821.39 582.13,-827.39 582.13,-833.39 582.13,-833.39 582.13,-858.17 582.13,-858.17 582.13,-864.17 576.13,-870.17 570.13,-870.17"/>
<text xml:space="preserve" text-anchor="middle" x="502.42" y="-851.08" font-family="DejaVu Sans" font-size="11.00">TRANSLATOR AGENT</text>
<text xml:space="preserve" text-anchor="middle" x="502.42" y="-835.33" font-family="DejaVu Sans" font-size="11.00">Repair compilation failure</text>
</g>
<!-- compile&#45;&gt;compile_repair -->
<g id="edge13" class="edge">
<title>compile&#45;&gt;compile_repair</title>
<path fill="none" stroke="#667085" stroke-width="1.25" d="M475.85,-917.81C475.85,-917.81 475.85,-880.02 475.85,-880.02"/>
<polygon fill="#667085" stroke="#667085" stroke-width="1.25" points="478.47,-880.02 475.85,-872.52 473.22,-880.02 478.47,-880.02"/>
<text xml:space="preserve" text-anchor="middle" x="444.72" y="-903.12" font-family="DejaVu Sans" font-size="9.00" fill="#344054">compile failure</text>
</g>
<!-- initial_judge -->
<g id="node15" class="node">
<title>initial_judge</title>
<path fill="#fce7e2" stroke="#b54708" d="M784.13,-878.05C784.13,-878.05 618.71,-878.05 618.71,-878.05 612.71,-878.05 606.71,-872.05 606.71,-866.05 606.71,-866.05 606.71,-825.52 606.71,-825.52 606.71,-819.52 612.71,-813.52 618.71,-813.52 618.71,-813.52 784.13,-813.52 784.13,-813.52 790.13,-813.52 796.13,-819.52 796.13,-825.52 796.13,-825.52 796.13,-866.05 796.13,-866.05 796.13,-872.05 790.13,-878.05 784.13,-878.05"/>
<text xml:space="preserve" text-anchor="middle" x="701.42" y="-858.96" font-family="DejaVu Sans" font-size="11.00">EVALUATOR AGENT</text>
<text xml:space="preserve" text-anchor="middle" x="701.42" y="-843.21" font-family="DejaVu Sans" font-size="11.00">Record initial Judge observation</text>
<text xml:space="preserve" text-anchor="middle" x="701.42" y="-827.46" font-family="DejaVu Sans" font-size="11.00">Never used as repair feedback</text>
</g>
<!-- compile&#45;&gt;initial_judge -->
<g id="edge15" class="edge">
<title>compile&#45;&gt;initial_judge</title>
<path fill="none" stroke="#667085" stroke-width="1.25" d="M618.23,-917.81C618.23,-917.81 618.23,-887.66 618.23,-887.66"/>
<polygon fill="#667085" stroke="#667085" stroke-width="1.25" points="620.86,-887.66 618.23,-880.16 615.61,-887.66 620.86,-887.66"/>
<text xml:space="preserve" text-anchor="middle" x="599.11" y="-906.94" font-family="DejaVu Sans" font-size="9.00" fill="#344054">compiled</text>
</g>
<!-- compile_repair&#45;&gt;compile -->
<g id="edge14" class="edge">
<title>compile_repair&#45;&gt;compile</title>
<path fill="none" stroke="#667085" stroke-width="1.25" d="M528.99,-870.56C528.99,-870.56 528.99,-908.41 528.99,-908.41"/>
<polygon fill="#667085" stroke="#667085" stroke-width="1.25" points="526.36,-908.41 528.99,-915.91 531.61,-908.41 526.36,-908.41"/>
<text xml:space="preserve" text-anchor="middle" x="499.36" y="-880.93" font-family="DejaVu Sans" font-size="9.00" fill="#344054">bounded retry</text>
</g>
<!-- visible_run -->
<g id="node16" class="node">
<title>visible_run</title>
<path fill="#ddf3ee" stroke="#267a6e" d="M810,-773.52C810,-773.52 592.83,-773.52 592.83,-773.52 586.83,-773.52 580.83,-767.52 580.83,-761.52 580.83,-761.52 580.83,-720.99 580.83,-720.99 580.83,-714.99 586.83,-708.99 592.83,-708.99 592.83,-708.99 810,-708.99 810,-708.99 816,-708.99 822,-714.99 822,-720.99 822,-720.99 822,-761.52 822,-761.52 822,-767.52 816,-773.52 810,-773.52"/>
<text xml:space="preserve" text-anchor="middle" x="701.42" y="-754.43" font-family="DejaVu Sans" font-size="11.00">TESTER AGENT</text>
<text xml:space="preserve" text-anchor="middle" x="701.42" y="-738.68" font-family="DejaVu Sans" font-size="11.00">Run C and Rust on the shared visible suite</text>
<text xml:space="preserve" text-anchor="middle" x="701.42" y="-722.93" font-family="DejaVu Sans" font-size="11.00">Produce differential TestReport</text>
</g>
<!-- initial_judge&#45;&gt;visible_run -->
<g id="edge16" class="edge">
<title>initial_judge&#45;&gt;visible_run</title>
<path fill="none" stroke="#667085" stroke-width="1.25" d="M701.42,-813.28C701.42,-813.28 701.42,-783.13 701.42,-783.13"/>
<polygon fill="#667085" stroke="#667085" stroke-width="1.25" points="704.04,-783.13 701.42,-775.63 698.79,-783.13 704.04,-783.13"/>
</g>
<!-- visible_result -->
<g id="node17" class="node">
<title>visible_result</title>
<polygon fill="#f0faf7" stroke="#267a6e" points="636.42,-668.99 565.5,-620.21 636.42,-571.43 707.34,-620.21 636.42,-668.99"/>
<text xml:space="preserve" text-anchor="middle" x="636.42" y="-625.51" font-family="DejaVu Sans" font-size="11.00">Visible</text>
<text xml:space="preserve" text-anchor="middle" x="636.42" y="-609.76" font-family="DejaVu Sans" font-size="11.00">evidence</text>
</g>
<!-- visible_run&#45;&gt;visible_result -->
<g id="edge17" class="edge">
<title>visible_run&#45;&gt;visible_result</title>
<path fill="none" stroke="#667085" stroke-width="1.25" d="M644.09,-708.5C644.09,-708.5 644.09,-673.3 644.09,-673.3"/>
<polygon fill="#667085" stroke="#667085" stroke-width="1.25" points="646.71,-673.3 644.09,-665.8 641.46,-673.3 646.71,-673.3"/>
</g>
<!-- semantic_review -->
<g id="node18" class="node">
<title>semantic_review</title>
<path fill="#fff1cc" stroke="#a46a00" d="M730.75,-531.43C730.75,-531.43 542.08,-531.43 542.08,-531.43 536.08,-531.43 530.08,-525.43 530.08,-519.43 530.08,-519.43 530.08,-478.9 530.08,-478.9 530.08,-472.9 536.08,-466.9 542.08,-466.9 542.08,-466.9 730.75,-466.9 730.75,-466.9 736.75,-466.9 742.75,-472.9 742.75,-478.9 742.75,-478.9 742.75,-519.43 742.75,-519.43 742.75,-525.43 736.75,-531.43 730.75,-531.43"/>
<text xml:space="preserve" text-anchor="middle" x="636.42" y="-512.34" font-family="DejaVu Sans" font-size="11.00">VALIDATOR AGENT</text>
<text xml:space="preserve" text-anchor="middle" x="636.42" y="-496.59" font-family="DejaVu Sans" font-size="11.00">Analyze C + Rust + differential report</text>
<text xml:space="preserve" text-anchor="middle" x="636.42" y="-480.84" font-family="DejaVu Sans" font-size="11.00">Classify the evidence</text>
</g>
<!-- visible_result&#45;&gt;semantic_review -->
<g id="edge19" class="edge">
<title>visible_result&#45;&gt;semantic_review</title>
<path fill="none" stroke="#667085" stroke-width="1.25" d="M636.42,-570.98C636.42,-570.98 636.42,-541.11 636.42,-541.11"/>
<polygon fill="#667085" stroke="#667085" stroke-width="1.25" points="639.04,-541.11 636.42,-533.61 633.79,-541.11 639.04,-541.11"/>
<text xml:space="preserve" text-anchor="middle" x="593.29" y="-560.25" font-family="DejaVu Sans" font-size="9.00" fill="#344054">C passed; Rust failed</text>
</g>
<!-- final_judge -->
<g id="node21" class="node">
<title>final_judge</title>
<path fill="#fce7e2" stroke="#b54708" d="M619.25,-289.34C619.25,-289.34 343.58,-289.34 343.58,-289.34 337.58,-289.34 331.58,-283.34 331.58,-277.34 331.58,-277.34 331.58,-236.81 331.58,-236.81 331.58,-230.81 337.58,-224.81 343.58,-224.81 343.58,-224.81 619.25,-224.81 619.25,-224.81 625.25,-224.81 631.25,-230.81 631.25,-236.81 631.25,-236.81 631.25,-277.34 631.25,-277.34 631.25,-283.34 625.25,-289.34 619.25,-289.34"/>
<text xml:space="preserve" text-anchor="middle" x="481.42" y="-270.25" font-family="DejaVu Sans" font-size="11.00">EVALUATOR AGENT</text>
<text xml:space="preserve" text-anchor="middle" x="481.42" y="-254.5" font-family="DejaVu Sans" font-size="11.00">After pass, skip, invalid test or inconclusive evidence</text>
<text xml:space="preserve" text-anchor="middle" x="481.42" y="-238.75" font-family="DejaVu Sans" font-size="11.00">Run or reuse final Judge comparison and case counts</text>
</g>
<!-- visible_result&#45;&gt;final_judge -->
<g id="edge18" class="edge">
<title>visible_result&#45;&gt;final_judge</title>
<path fill="none" stroke="#667085" stroke-width="1.25" d="M565.3,-620C522.56,-620 476.4,-620 476.4,-620 476.4,-620 476.4,-298.99 476.4,-298.99"/>
<polygon fill="#667085" stroke="#667085" stroke-width="1.25" points="479.02,-298.99 476.4,-291.49 473.77,-298.99 479.02,-298.99"/>
<text xml:space="preserve" text-anchor="middle" x="419.02" y="-508.15" font-family="DejaVu Sans" font-size="9.00" fill="#344054">pass / skipped / unavailable</text>
</g>
<!-- semantic_decision -->
<g id="node19" class="node">
<title>semantic_decision</title>
<polygon fill="#fff8e7" stroke="#a46a00" points="636.42,-426.9 550.5,-378.12 636.42,-329.34 722.34,-378.12 636.42,-426.9"/>
<text xml:space="preserve" text-anchor="middle" x="636.42" y="-383.42" font-family="DejaVu Sans" font-size="11.00">Validator</text>
<text xml:space="preserve" text-anchor="middle" x="636.42" y="-367.67" font-family="DejaVu Sans" font-size="11.00">assessment</text>
</g>
<!-- semantic_review&#45;&gt;semantic_decision -->
<g id="edge20" class="edge">
<title>semantic_review&#45;&gt;semantic_decision</title>
<path fill="none" stroke="#667085" stroke-width="1.25" d="M636.42,-466.41C636.42,-466.41 636.42,-436.67 636.42,-436.67"/>
<polygon fill="#667085" stroke="#667085" stroke-width="1.25" points="639.04,-436.67 636.42,-429.17 633.79,-436.67 639.04,-436.67"/>
</g>
<!-- semantic_repair -->
<g id="node20" class="node">
<title>semantic_repair</title>
<path fill="#dcebfa" stroke="#175cd3" d="M896.25,-289.34C896.25,-289.34 668.58,-289.34 668.58,-289.34 662.58,-289.34 656.58,-283.34 656.58,-277.34 656.58,-277.34 656.58,-236.81 656.58,-236.81 656.58,-230.81 662.58,-224.81 668.58,-224.81 668.58,-224.81 896.25,-224.81 896.25,-224.81 902.25,-224.81 908.25,-230.81 908.25,-236.81 908.25,-236.81 908.25,-277.34 908.25,-277.34 908.25,-283.34 902.25,-289.34 896.25,-289.34"/>
<text xml:space="preserve" text-anchor="middle" x="782.42" y="-270.25" font-family="DejaVu Sans" font-size="11.00">TRANSLATOR AGENT</text>
<text xml:space="preserve" text-anchor="middle" x="782.42" y="-254.5" font-family="DejaVu Sans" font-size="11.00">Only for confirmed translation_discrepancy</text>
<text xml:space="preserve" text-anchor="middle" x="782.42" y="-238.75" font-family="DejaVu Sans" font-size="11.00">Apply repair, then recompile and rerun tests</text>
</g>
<!-- semantic_decision&#45;&gt;semantic_repair -->
<g id="edge21" class="edge">
<title>semantic_decision&#45;&gt;semantic_repair</title>
<path fill="none" stroke="#667085" stroke-width="1.25" d="M689.46,-358.94C689.46,-358.94 689.46,-298.76 689.46,-298.76"/>
<polygon fill="#667085" stroke="#667085" stroke-width="1.25" points="692.09,-298.76 689.46,-291.26 686.84,-298.76 692.09,-298.76"/>
</g>
<!-- semantic_decision&#45;&gt;final_judge -->
<g id="edge23" class="edge">
<title>semantic_decision&#45;&gt;final_judge</title>
<path fill="none" stroke="#667085" stroke-width="1.25" d="M590.88,-354.78C590.88,-354.78 590.88,-298.88 590.88,-298.88"/>
<polygon fill="#667085" stroke="#667085" stroke-width="1.25" points="593.5,-298.88 590.88,-291.38 588.25,-298.88 593.5,-298.88"/>
</g>
<!-- semantic_repair&#45;&gt;visible_run -->
<g id="edge22" class="edge">
<title>semantic_repair&#45;&gt;visible_run</title>
<path fill="none" stroke="#667085" stroke-width="1.25" d="M782.38,-289.6C782.38,-289.6 782.38,-699.17 782.38,-699.17"/>
<polygon fill="#667085" stroke="#667085" stroke-width="1.25" points="779.75,-699.17 782.38,-706.67 785,-699.17 779.75,-699.17"/>
<text xml:space="preserve" text-anchor="middle" x="849.13" y="-498.58" font-family="DejaVu Sans" font-size="9.00" fill="#344054">bounded recompile / retest loop</text>
</g>
<!-- close_run -->
<g id="node22" class="node">
<title>close_run</title>
<path fill="#fff1cc" stroke="#a46a00" d="M552.13,-184.81C552.13,-184.81 410.71,-184.81 410.71,-184.81 404.71,-184.81 398.71,-178.81 398.71,-172.81 398.71,-172.81 398.71,-132.28 398.71,-132.28 398.71,-126.28 404.71,-120.28 410.71,-120.28 410.71,-120.28 552.13,-120.28 552.13,-120.28 558.13,-120.28 564.13,-126.28 564.13,-132.28 564.13,-132.28 564.13,-172.81 564.13,-172.81 564.13,-178.81 558.13,-184.81 552.13,-184.81"/>
<text xml:space="preserve" text-anchor="middle" x="481.42" y="-165.72" font-family="DejaVu Sans" font-size="11.00">VALIDATOR ROUTING</text>
<text xml:space="preserve" text-anchor="middle" x="481.42" y="-149.97" font-family="DejaVu Sans" font-size="11.00">Close the workflow</text>
<text xml:space="preserve" text-anchor="middle" x="481.42" y="-134.22" font-family="DejaVu Sans" font-size="11.00">Judge cannot trigger repair</text>
</g>
<!-- final_judge&#45;&gt;close_run -->
<g id="edge24" class="edge">
<title>final_judge&#45;&gt;close_run</title>
<path fill="none" stroke="#667085" stroke-width="1.25" d="M481.42,-224.57C481.42,-224.57 481.42,-194.42 481.42,-194.42"/>
<polygon fill="#667085" stroke="#667085" stroke-width="1.25" points="484.04,-194.42 481.42,-186.92 478.79,-194.42 484.04,-194.42"/>
</g>
<!-- reports -->
<g id="node23" class="node">
<title>reports</title>
<path fill="#ede7f6" stroke="#6941c6" d="M608.75,-80.28C608.75,-80.28 354.08,-80.28 354.08,-80.28 348.08,-80.28 342.08,-74.28 342.08,-68.28 342.08,-68.28 342.08,-12 342.08,-12 342.08,-6 348.08,0 354.08,0 354.08,0 608.75,0 608.75,0 614.75,0 620.75,-6 620.75,-12 620.75,-12 620.75,-68.28 620.75,-68.28 620.75,-74.28 614.75,-80.28 608.75,-80.28"/>
<text xml:space="preserve" text-anchor="middle" x="481.42" y="-61.19" font-family="DejaVu Sans" font-size="11.00">REPORTING MODULES</text>
<text xml:space="preserve" text-anchor="middle" x="481.42" y="-45.44" font-family="DejaVu Sans" font-size="11.00">CSV + JSON + attempt history + agent interactions</text>
<text xml:space="preserve" text-anchor="middle" x="481.42" y="-29.69" font-family="DejaVu Sans" font-size="11.00">Judge reports + Excel analysis workbook</text>
<text xml:space="preserve" text-anchor="middle" x="481.42" y="-13.94" font-family="DejaVu Sans" font-size="11.00">benchmark_reporting.py / review_workbook.py</text>
</g>
<!-- close_run&#45;&gt;reports -->
<g id="edge29" class="edge">
<title>close_run&#45;&gt;reports</title>
<path fill="none" stroke="#667085" stroke-width="1.25" d="M481.42,-120.03C481.42,-120.03 481.42,-89.97 481.42,-89.97"/>
<polygon fill="#667085" stroke="#667085" stroke-width="1.25" points="484.04,-89.97 481.42,-82.47 478.79,-89.97 484.04,-89.97"/>
</g>
</g>
</svg>
